<?xml version="1.0" encoding="utf-8"?>
<svg xmlns="http://www.w3.org/2000/svg" version="1.1" x="0px" y="0px" viewBox="0 0 100 125">
  <g transform="translate(0,-952.36218)">
    <path d="m 48,978.06449 0,46.10251 c -10.2175,-4.4601 -18.8019,-4.3317 -29,0.1269 0,-16.8892 0,-33.89955 0,-50.73485 2.9057,-0.64528 5.5969,-1.05548 8.0313,-1.14225 7.458,-0.24869 15.436,2.90848 20.9687,5.64769 z m 24.0313,-5.61606 c 2.712,0.0289 5.6719,0.37838 8.9687,1.11052 -0.018,17.50762 0.001,35.67015 0,50.73485 -10.1981,-4.4586 -18.7825,-4.587 -29,-0.1269 l 0,-46.07078 c 7.1026,-2.96916 11.875,-5.66071 20.0313,-5.64769 z M 15,977.96931 c 0,17.5145 0,35.02899 0,52.54349 12.875,-6.1117 23.875,-6.1117 33,-1.9672 l 0,3.7758 -38.0000002,0 0,-53.90789 C 11.7358,977.35831 13.2468,977.37519 15,977.96931 z m 75,0.4442 0,53.90789 -38,0 0,-3.7758 c 8.875,-4.1445 21.8271,-3.5816 33,1.9672 0,-17.5145 0,-35.02899 0,-52.54349 1.6967,-0.68774 3.5439,-0.54635 5,0.4442 z" style="text-indent:0;text-transform:none;direction:ltr;block-progression:tb;baseline-shift:baseline;color:#000000;enable-background:accumulate;" fill="#000000" fill-opacity="1" stroke="none" marker="none" visibility="visible" display="inline" overflow="visible"/>
  </g>
</svg>