<?xml version="1.0" encoding="utf-8"?>
<svg xmlns="http://www.w3.org/2000/svg" version="1.1" viewBox="-5.0 -10.0 110.0 135.0">
  <path d="m56.602 20.27c0 4.5781-4.1211 8.2812-5.5586 9.4414v3.6992h-2.2812v-3.6992c-1.4414-1.1602-5.5586-4.8594-5.5586-9.4414 0-5.4219 5.7891-9.6289 6.0508-9.7891l0.64453-0.48047 0.66016 0.48047c0.25 0.16797 6.043 4.3711 6.043 9.7891z"/>
  <path d="m59.988 35.699c0.46094 0 0.82812 0.32812 0.89844 0.76172-1 0.19141-2.8594 0.51172-4.1016 0.71875-1.0898 0.17969-2.0586 0.35156-2.5508 0.44141-1.0391 0.19141-2.3203 0.44141-3.7695 1.2617-1.2891 0.73828-2.3398 1.6602-3.0781 2.7305-1.2617 1.7891-1.4414 3.6797-1.6992 6.8086l-0.070312 0.67969c-0.070313 0.89844-0.10156 1.6406-0.10938 2.2617-0.019531 0.64062-0.050781 1.3711-0.12891 1.5195-0.23828 0.14844-1.1406 0.011719-1.6602-0.57031-0.48047-0.53906-0.35156-1.3711-0.070312-2.9297 0.12891-0.71094 0.26953-1.4883 0.35156-2.3789 0.32031-3.5195-0.62891-5.9609-1.3789-7.9102-0.48828-1.25-0.89062-2.3008-0.92188-3.4102l18.289-0.003906zm-21.109 0.92188c0-0.37891 0.23047-0.71094 0.55078-0.83984 0.050781 1.4805 0.55078 2.7891 1.0703 4.1484 0.75 1.9102 1.5195 3.8984 1.2383 6.8789-0.070312 0.76953-0.21094 1.4883-0.32812 2.1797-0.32031 1.7891-0.64062 3.4609 0.62109 4.8594 0.73047 0.80078 1.9414 1.3711 3.0781 1.3711 0.53906 0 1.0508-0.10938 1.4883-0.39844 1.1016-0.69141 1.1406-1.8086 1.1797-3.3594 0.019531-0.57813 0.050781-1.2891 0.12891-2.1289l0.058594-0.69141c0.25-2.9297 0.37891-4.4102 1.2891-5.6992 0.83984-1.1992 1.9805-1.8516 2.3594-2.0586 1.1016-0.64062 2.1016-0.82812 3.0586-1.0117 0.46875-0.089844 1.4219-0.25 2.4883-0.42188 1.7695-0.30078 2.9492-0.5 3.75-0.64844v36.93c0 0.51172-0.41016 0.92188-0.92188 0.92188l-20.188-0.003906c-0.51172 0-0.92188-0.41016-0.92188-0.92188zm37.441 50.098c-0.62109 1.1484-1.7383 1.9297-3.0195 2.0508-7.7109 0.80859-15.98 1.2305-23.902 1.2305-7.6914 0-15.16-0.39844-22.852-1.2188-1.3086-0.14062-2.4609-0.89844-3.0781-2.0508l-3.3398-6.25c6.25 1.8008 18.941 2.6406 30 2.6406 10.871 0 23.352-0.82812 29.539-2.6289zm-26.18-5.8789c-16.27 0-28.551-1.6719-31.43-3.3086l-0.011719-0.23828c0.070312-0.03125 0.14062-0.070313 0.21875-0.10938 0.12891-0.070313 0.28125-0.14062 0.46875-0.21094 0.35938-0.14844 0.83984-0.30859 1.4688-0.48047 0.16016-0.050782 0.32812-0.089844 0.51172-0.14063 1.0586-0.28125 2.4883-0.57812 4.4102-0.87891 3.0391-0.46875 6.75-0.83984 10.828-1.1016v1.3398c0 1.7695 1.4414 3.1992 3.1992 3.1992h20.191c1.7695 0 3.1992-1.4414 3.1992-3.1992v-1.3711c4.2305 0.26172 8.0312 0.64844 11.039 1.1289 4.9297 0.78906 6.5586 1.5703 7.0703 1.9297-2.3945 1.7109-14.484 3.4414-31.164 3.4414z"/>
</svg>