<?xml version="1.0" encoding="utf-8"?>
<svg xmlns="http://www.w3.org/2000/svg" version="1.1" viewBox="-5.0 -10.0 110.0 135.0">
  <path d="m61.109 33.332v33.332c0 0.77734-0.60938 1.3906-1.3906 1.3906-0.77734 0-1.3906-0.60938-1.3906-1.3906v-33.332c0-0.77734 0.60938-1.3906 1.3906-1.3906 0.77734 0 1.3906 0.60938 1.3906 1.3906zm30.559 25c0 0.77734-0.60938 1.3906-1.3906 1.3906h-6.9453v18.055c0 0.77734-0.60938 1.3906-1.3906 1.3906h-31.945v4.168c0 0.77734-0.60938 1.3906-1.3906 1.3906h-4.168v9.7227c0 0.77734-0.60938 1.3906-1.3906 1.3906l-27.77-0.007813c-0.77734 0-1.3906-0.60938-1.3906-1.3906v-9.7227h-4.168c-0.77734 0-1.3906-0.60938-1.3906-1.3906l0.003906-66.66c0-0.77734 0.60938-1.3906 1.3906-1.3906h4.168v-9.7227c0-0.77734 0.60938-1.3906 1.3906-1.3906h27.777c0.77734 0 1.3906 0.60938 1.3906 1.3906v9.7227h4.168c0.77734 0 1.3906 0.60938 1.3906 1.3906v4.168h31.945c0.77734 0 1.3906 0.60937 1.3906 1.3906v18.055h6.9453c0.77734 0 1.3906 0.60938 1.3906 1.3906 0 0.77734-0.60938 1.3906-1.3906 1.3906h-6.9453v13.891h6.9453c0.77734 0 1.3906 0.60938 1.3906 1.3906zm-75-43.055h25v-8.332h-25zm25 69.445h-25v8.332h25zm5.5547-6.9453v-59.723h-36.113v63.891h36.109v-4.168zm33.332-18.055h-6.9453c-0.77734 0-1.3906-0.60938-1.3906-1.3906 0-0.77734 0.60938-1.3906 1.3906-1.3906h6.9453v-13.891h-6.9453c-0.77734 0-1.3906-0.60938-1.3906-1.3906 0-0.77734 0.60938-1.3906 1.3906-1.3906h6.9453v-16.668h-30.555v52.777h30.555v-16.668zm-43.055-11.113h-6.9453v-6.9453c0-0.77734-0.60938-1.3906-1.3906-1.3906-0.77734 0-1.3906 0.60937-1.3906 1.3906v6.9453h-6.9453c-0.77734 0-1.3906 0.60938-1.3906 1.3906 0 0.77734 0.60938 1.3906 1.3906 1.3906h6.9453v6.9453c0 0.77734 0.60937 1.3906 1.3906 1.3906 0.77734 0 1.3906-0.60937 1.3906-1.3906v-6.9453h6.9453c0.77734 0 1.3906-0.60938 1.3906-1.3906 0-0.77734-0.60938-1.3906-1.3906-1.3906z"/>
</svg>