<?xml version="1.0" encoding="utf-8"?>
<svg xmlns="http://www.w3.org/2000/svg" version="1.1" viewBox="-5.0 -10.0 110.0 135.0">
  <path d="m75.457 6.0742c0.14062-1.6445-1.2812-3.168-2.9336-3.1328h-45.043c-1.6484-0.035156-3.0781 1.4883-2.9336 3.1328 0 0 4.7031 71.672 4.7031 71.672 0.20703 3.1328 2.2656 5.7461 5.0742 6.8203v6.4219c0 3.3438 2.7461 6.0664 6.1172 6.0664h19.117c3.375 0 6.1172-2.7227 6.1172-6.0664v-6.4219c2.8086-1.0781 4.8711-3.6875 5.0742-6.8203l4.7031-71.672zm-6.0781 2.75-0.17578 2.6758h-38.406l-0.17578-2.6758h38.762zm-9.8203 82.352h-19.117c-0.13672 0-0.23828-0.097656-0.23828-0.18359v-5.8906h19.59v5.8906c0 0.085937-0.10156 0.18359-0.23828 0.18359zm5.3242-13.812c-0.066406 1.0391-0.97266 1.8555-2.0586 1.8555h-25.648c-1.0859 0-1.9922-0.81641-2.0586-1.8555l-3.9336-59.98h37.637l-3.9336 59.98z"/>
  <path d="m50 30.008c-7.832 0-14.203 6.2852-14.203 14.012 0.77734 18.59 27.629 18.586 28.402 0 0-7.7266-6.3711-14.012-14.203-14.012zm0 22.145c-4.5859 0-8.3203-3.6484-8.3203-8.1289 0.45312-10.785 16.184-10.781 16.637 0 0 4.4844-3.7305 8.1289-8.3203 8.1289z"/>
</svg>