<?xml version="1.0" encoding="utf-8"?>
<svg xmlns="http://www.w3.org/2000/svg" version="1.1" viewBox="-5.0 -10.0 110.0 135.0">
  <g>
    <path d="m67.398 10.02h5.7305v7.168h-5.7305z"/>
    <path d="m59.781 10.02h5.7305v7.168h-5.7305z"/>
    <path d="m78.27 17.188h0.007813 0.99609c0.71875 0 1.3008-0.58594 1.3008-1.3008l0.003906-4.5664c0-0.71484-0.58594-1.3008-1.3008-1.3008h-4.2578l-0.003906 7.168z"/>
    <path d="m41.363 8.3203h-23.379c-2.3281 0-4.2266 1.8867-4.2266 4.207v23.98h14.973v-21.289c0-0.51953 0.42188-0.94531 0.94531-0.94531 0.51953 0 0.94531 0.42187 0.94531 0.94531v21.289h14.973l-0.003906-23.98c0-2.3203-1.8945-4.207-4.2266-4.207zm-19.957 25.785c-2.5156 0-4.5625-2.0469-4.5625-4.5625s2.0469-4.5625 4.5625-4.5625 4.5625 2.0469 4.5625 4.5625-2.0469 4.5625-4.5625 4.5625zm0-12.293c-2.5156 0-4.5625-2.0469-4.5625-4.5625s2.0469-4.5625 4.5625-4.5625 4.5625 2.0469 4.5625 4.5625-2.0469 4.5625-4.5625 4.5625zm16.539 12.293c-2.5156 0-4.5625-2.0469-4.5625-4.5625s2.0469-4.5625 4.5625-4.5625c2.5156 0 4.5625 2.0469 4.5625 4.5625s-2.0469 4.5625-4.5625 4.5625zm0-12.293c-2.5156 0-4.5625-2.0469-4.5625-4.5625s2.0469-4.5625 4.5625-4.5625c2.5156 0 4.5625 2.0469 4.5625 4.5625s-2.0469 4.5625-4.5625 4.5625z"/>
    <path d="m68.93 27.586c-1.5078 0-2.7344 1.2266-2.7344 2.7344v6.1875h11.133v-8.9219z"/>
    <path d="m68.93 25.699h8.3984v-6.6211l-21.719-0.003906v17.434h8.6992v-6.1875c0-2.5508 2.0742-4.6211 4.6211-4.6211z"/>
    <path d="m40.621 17.25c0 3.5664-5.3516 3.5664-5.3516 0 0-3.5703 5.3516-3.5703 5.3516 0"/>
    <path d="m40.621 29.539c0 3.5703-5.3516 3.5703-5.3516 0 0-3.5703 5.3516-3.5703 5.3516 0"/>
    <path d="m24.082 17.25c0 3.5664-5.3555 3.5664-5.3555 0 0-3.5703 5.3555-3.5703 5.3555 0"/>
    <path d="m83.723 59.32c1.4727 0 2.8008-0.69531 3.6367-1.9102 0.83203-1.2031 1.0117-2.6758 0.49609-4.0391l-5.5273-14.973h-1.6523l-68.656-0.003907-5.5469 14.969c-0.51172 1.3672-0.32422 2.8477 0.51562 4.0547 0.83984 1.207 2.1562 1.9023 3.6172 1.9023z"/>
    <path d="m52.332 11.32v4.5664c0 0.73047 0.57031 1.3008 1.3008 1.3008h1.0234 0.007812 3.2266l0.003906-7.168h-4.2578c-0.73047 0-1.3047 0.57031-1.3047 1.3008z"/>
    <path d="m24.082 29.539c0 3.5703-5.3555 3.5703-5.3555 0 0-3.5703 5.3555-3.5703 5.3555 0"/>
    <path d="m93.02 57.41c0.83203-1.2031 1.0117-2.6758 0.49609-4.0391l-5.3242-14.383c-0.12891-0.34766-0.47656-0.58984-0.85156-0.58984h-3.0039l5.2852 14.316c0.72266 1.9141 0.45703 4.0742-0.71484 5.7695-1.1367 1.6484-2.9922 2.6328-4.9844 2.6992v21.402c0 3.7422-1.8945 7.0508-4.7734 9.0352 4.7578-0.30859 8.5469-4.2188 8.5469-9.0352l0.007813-22.324c0-0.51953 0.42188-0.94531 0.94531-0.94531h0.73437c1.4727 0.003906 2.8008-0.69141 3.6367-1.9062z"/>
    <path d="m21.402 91.68h51.508c5.0352 0 9.1328-4.0781 9.1328-9.0938v-21.379h-69.734v21.379c0 5.0117 4.0781 9.0938 9.0938 9.0938zm37.027-12.195h14.621c0.51953 0 0.94531 0.42188 0.94531 0.94531 0 0.51953-0.42188 0.94531-0.94531 0.94531h-14.621c-0.51953 0-0.94531-0.42188-0.94531-0.94531 0.003906-0.52344 0.42578-0.94531 0.94531-0.94531zm0 5.0703h7.9023c0.51953 0 0.94531 0.42187 0.94531 0.94531 0 0.51953-0.42188 0.94531-0.94531 0.94531h-7.9023c-0.51953 0-0.94531-0.42187-0.94531-0.94531 0.003906-0.52344 0.42578-0.94531 0.94531-0.94531z"/>
  </g>
</svg>