<?xml version="1.0" encoding="UTF-8" standalone="no"?>
<svg
   version="1.1"
   x="0px"
   y="0px"
   viewBox="0 0 100 125"
   id="svg2"
   sodipodi:docname="noun-bottle-2096008.svg"
   inkscape:version="1.4.2 (ebf0e940, 2025-05-08)"
   xmlns:inkscape="http://www.inkscape.org/namespaces/inkscape"
   xmlns:sodipodi="http://sodipodi.sourceforge.net/DTD/sodipodi-0.dtd"
   xmlns="http://www.w3.org/2000/svg"
   xmlns:svg="http://www.w3.org/2000/svg">
  <defs
     id="defs2" />
  <sodipodi:namedview
     id="namedview2"
     pagecolor="#ffffff"
     bordercolor="#000000"
     borderopacity="0.25"
     inkscape:showpageshadow="2"
     inkscape:pageopacity="0.0"
     inkscape:pagecheckerboard="0"
     inkscape:deskcolor="#d1d1d1"
     showgrid="false"
     inkscape:zoom="5.576"
     inkscape:cx="50.753228"
     inkscape:cy="50.663558"
     inkscape:window-width="1512"
     inkscape:window-height="916"
     inkscape:window-x="0"
     inkscape:window-y="38"
     inkscape:window-maximized="1"
     inkscape:current-layer="svg2" />
  <g
     transform="translate(0,-952.36218)"
     id="g1">
    <path
       style="baseline-shift:baseline;block-progression:tb;color:#000000;direction:ltr;text-indent:0;enable-background:accumulate;text-transform:none;"
       fill="#000"
       d="m52.844,961.38-6.0938,0.0312c-2.0593,0.009-3.7578,1.6594-3.75,3.7188,0.0026,0.69666,0.2246,1.3466,0.5625,1.9062a0.60006,0.60006,0,0,0,-0.03125,0.15625v0.25l0.0625,17.219a0.60006,0.60006,0,0,0,-0.0625,0c-1.7483,0.2449-3.6584,1.635-5.25,3.25-0.79578,0.80753-1.5169,1.6842-2.0312,2.5312-0.51432,0.84701-0.847,1.6441-0.84375,2.4375a0.60006,0.60006,0,0,0,0,0.0312l0.1875,44.344c0.0075,1.8244,1.3443,3.3468,2.9688,4.4063s3.5915,1.6945,5.2812,1.6875l12.531-0.062c1.6877-0.01,3.6621-0.6539,5.2812-1.7188,1.6191-1.0648,2.945-2.581,2.9375-4.4062l-0.09375-12.469a0.60006,0.60006,0,0,0,0,-0.094v-0.062a0.60006,0.60006,0,0,0,0,-0.031l-0.0625-17.75a0.60006,0.60006,0,0,0,0,-0.094l-0.0625-13.875c-0.0038-0.92766-0.45581-1.8299-1.0938-2.7188-0.63794-0.88883-1.4894-1.7459-2.375-2.5312-0.88562-0.78532-1.8066-1.4838-2.625-2-0.75845-0.47841-1.3416-0.78276-1.9375-0.875v-0.0312l-0.15625-0.0312-0.125-0.0625-0.0625-17.406a0.60006,0.60006,0,0,0,0,-0.0625c0.0049-0.008-0.0048-0.0234,0-0.0312,0.35136-0.5759,0.56523-1.2469,0.5625-1.9688-0.0078-2.0594-1.6594-3.6966-3.7188-3.6875zm0,1.1875c1.4153-0.006,2.5259,1.116,2.5312,2.5312,0.005,1.3268-0.96172,2.3665-2.25,2.5l-6.625,0.0312c-1.2819-0.129-2.2763-1.1783-2.2812-2.5-0.0053-1.4153,1.116-2.525,2.5312-2.5312l6.0938-0.0312zm1.9375,5.8125,0.0625,16.594a0.60006,0.60006,0,0,0,0.40625,0.5625l0.6875,0.21875a0.60006,0.60006,0,0,0,0.15625,0.0312c0.10452,0.009,0.80937,0.27494,1.5625,0.75s1.6323,1.1332,2.4688,1.875c0.83648,0.74175,1.6252,1.5916,2.1875,2.375,0.56226,0.78338,0.87295,1.5009,0.875,2l0.0625,13.25h-11.031a0.60006,0.60006,0,0,0,-0.46875,0.2187,0.60006,0.60006,0,0,0,0,0.031,0.60006,0.60006,0,0,0,-0.09375,0.062,0.60006,0.60006,0,0,0,0,0.031,0.60006,0.60006,0,0,0,0,0.031,0.60006,0.60006,0,0,0,0,0.031,0.60006,0.60006,0,0,0,-0.03125,0.031,0.60006,0.60006,0,0,0,0,0.031,0.60006,0.60006,0,0,0,-0.03125,0.031,0.60006,0.60006,0,0,0,0,0.062,0.60006,0.60006,0,0,0,0,0.062v17.938a0.60006,0.60006,0,0,0,0.625,0.5937h11.094l0.0625,11.969c0.005,1.2248-0.94949,2.4688-2.375,3.4062-1.4255,0.9375-3.2586,1.5255-4.625,1.5313l-12.531,0.062c-1.3643,0.01-3.1947-0.5985-4.625-1.5313-1.4303-0.9329-2.4325-2.1495-2.4375-3.375l-0.1875-44.375c-0.0016-0.40008,0.23608-1.0691,0.6875-1.8125,0.45142-0.74343,1.104-1.5618,1.8438-2.3125,1.4796-1.5014,3.3653-2.7386,4.5625-2.9062h0.5a0.60006,0.60006,0,0,0,0.625,-0.59375l-0.0625-16.844c0.43835,0.25242,0.96095,0.40835,1.5312,0.40625,0.16581,0.022,0.32839,0.0633,0.5,0.0625l6.0938-0.0312c0.17161-0.00075,0.33476-0.0391,0.5-0.0625,0.08262-0.0117,0.16924-0.0141,0.25-0.0312,0.43793-0.043,0.82201-0.17515,1.1562-0.375zm-1.9688,38.875,10.438,0,0.0625,16.75-10.5,0,0-16.75z"
       id="path1" />
  </g>
  <text
     x="0"
     y="115"
     fill="#000000"
     font-size="5px"
     font-weight="bold"
     font-family="'Helvetica Neue', Helvetica, Arial-Unicode, Arial, Sans-serif"
     id="text1">Created by Blink@design</text>
  <text
     x="0"
     y="120"
     fill="#000000"
     font-size="5px"
     font-weight="bold"
     font-family="'Helvetica Neue', Helvetica, Arial-Unicode, Arial, Sans-serif"
     id="text2">from the Noun Project</text>
</svg>
