<svg xmlns="http://www.w3.org/2000/svg" version="1.1" viewBox="-5.0 -10.0 110.0 135.0">
 <path d="m97.223 53.68c0-3.8203-0.89062-3.793-0.90234-7.4023-0.015624-3.6094 0.90234-3.582 0.90234-7.3867 0-0.37109-0.14844-0.72266-0.40625-0.98438-0.26172-0.26172-0.61328-0.40625-0.98438-0.40625h-4.1641v-16.668c0.14062-4.293-5.2227-7.207-8.6523-4.543v0.003907c-0.53906-1.5703-1.7461-2.8164-3.2969-3.4023s-3.2812-0.44922-4.7188 0.375c0-3.0703-2.4883-5.5586-5.5547-5.5586-3.0703 0-5.5547 2.4883-5.5547 5.5586-1.7188-0.99219-3.832-0.99609-5.5508-0.007813-1.7148 0.98828-2.7773 2.8164-2.7852 4.7969v10.5c-1.7109-0.98828-3.8242-0.99219-5.5391-0.007813-1.7188 0.98438-2.7812 2.8086-2.793 4.7852v4.168h-23.613c-11.902 0-20.832 4.168-20.832 9.7227v11.109c0 0.76953 0.62109 1.3906 1.3906 1.3906 0.76562 0 1.3867-0.62109 1.3867-1.3906v-6.1523c7.043 6.2656 29.055 6.2656 36.109 0l0.003907 31.152c0 3.293-7.418 6.9453-18.055 6.9453-10.641 0-18.059-3.668-18.059-6.9453v-20.832c0-0.76562-0.62109-1.3906-1.3867-1.3906-0.76953 0-1.3906 0.625-1.3906 1.3906v20.832c0.375 12.5 38.516 12.734 41.445 1.3906h8.5547v6.9453c0 0.76562 0.62109 1.3867 1.3906 1.3867 0.76562 0 1.3867-0.62109 1.3867-1.3867v-12.598c3.8828-0.21484 7.7305-0.85156 11.473-1.9023 5 2.6406 10.762 3.4727 16.305 2.3477v12.152c0 0.76562 0.625 1.3867 1.3906 1.3867s1.3867-0.62109 1.3867-1.3867v-6.9453h9.7227c2.875-0.17969 0.5-5.9297 0.55469-7.25h0.003906c-0.078125-0.76562-0.76172-1.3281-1.5312-1.25-0.76562 0.078125-1.3242 0.76172-1.25 1.5273 0.16797 1.7773 0.59766 2.457 0.76562 4.168h-8.2656v-15.836c6.75-4.0977 5.4727-10.766 5.5547-17.457l0.003907-8.3477h2.7773c-0.27734 2.4727-0.85937 2.8906-0.84766 6.0156-0.027344 1.3633 0.13672 2.7227 0.48438 4.0391 0.51562 2.2227 0.51562 4.5312 0 6.75-0.60938 2.6523-0.60938 5.4062 0 8.0586 0.29688 1.0977 0.4375 2.2344 0.41797 3.375-0.058594 1.6875-0.3125 3.3672-0.75 5-0.0625 0.40234 0.058594 0.8125 0.32422 1.1172 0.26953 0.30859 0.65625 0.48438 1.0664 0.47656 1.3906 0 1.3906-1.6094 1.6523-2.5703v0.003907c0.60938-2.6523 0.60938-5.4062 0-8.0586-0.31641-1.0977-0.48047-2.2305-0.48828-3.375 0.015624-3.625 0.91797-3.6094 0.91797-7.4297zm-41.668 11.461c-0.039063-0.47266-0.31641-0.89062-0.73438-1.1133-3.1094-1.582-4.9883-4.8516-4.793-8.332 13.18 1.2852 26.477-0.44141 38.891-5.0547v1.4414c-9.5859 7.5547-21.195 12.098-33.363 13.059zm2.7773-27.57c4.2148 3.0977 8.9961 5.3398 14.07 6.5977l-5.0977 2.5547c-2.1914-2.6445-5.5547-4.0195-8.9727-3.668zm30.559 10.07c-6.2656 2.4023-12.793 4.0586-19.445 4.9297-0.027343-1.1836-0.26562-2.3516-0.71094-3.4453l8.207-4.168h0.003906c3.9688 0.53125 7.9961 0.45312 11.945-0.23438zm-30.559-29.586c0.007813-1.1172 0.68359-2.125 1.7188-2.5547 1.0352-0.42578 2.2227-0.19141 3.0195 0.59766 0.51953 0.51953 0.81641 1.2227 0.82031 1.957v15.277c0 0.76953 0.62109 1.3906 1.3867 1.3906s1.3906-0.62109 1.3906-1.3906v-20.832c0-1.5352 1.2422-2.7773 2.7773-2.7773 1.5352 0 2.7773 1.2422 2.7773 2.7773v20.832c0 0.76953 0.62109 1.3906 1.3867 1.3906 0.76953 0 1.3906-0.62109 1.3906-1.3906v-15.277c0-1.5352 1.2422-2.7773 2.7773-2.7773s2.7773 1.2422 2.7773 2.7773v15.277c0 0.76953 0.62109 1.3906 1.3906 1.3906 0.76563 0 1.3867-0.62109 1.3867-1.3906v-12.277c-0.097656-1.1484 0.52734-2.2383 1.5664-2.7383 1.0391-0.5 2.2773-0.30469 3.1172 0.48828 0.55859 0.52734 0.875 1.2617 0.875 2.0273v21.043c-10.582 2.4453-23.793-1.707-30.555-7.8203zm-8.332 15.277c0-1.5312 1.2422-2.7773 2.7773-2.7773s2.7773 1.2461 2.7773 2.7773v11.113c0 0.36719 0.14844 0.72266 0.40625 0.98047 0.26172 0.26172 0.61328 0.40625 0.98437 0.40625h2.7773c3.8633 0.039063 6.9688 3.1953 6.9453 7.0586-5.543 0.53906-11.125 0.53906-16.668 0zm-40.277 16.668c0-1.6523 5.5547-4.168 13.891-4.168 8.332 0 13.891 2.5156 13.891 4.168 0.34766 1.7773-7.418 4.4023-13.891 4.168-6.4727 0.22266-14.293-2.4023-13.891-4.168zm30.555-0.23438c-0.64062-8.918-32.652-8.918-33.332 0-5.25-5 5.5547-9.4883 16.664-9.4883 11.113 0 21.875 4.4883 16.668 9.4727zm4.168 32.18v-34.723c0-2.7773-2.25-5.207-5.9844-6.9453h8.7617v16c0.003906 4.0156 2.1133 7.7383 5.5547 9.8047v15.863zm11.109-14c3.8516-0.30469 7.668-0.94531 11.402-1.918 3.7461 2.0156 7.9609 3 12.211 2.8477-7.125 4.4141-15.246 6.9609-23.613 7.4023zm17.027 8.4453c-0.54297-0.15234-1.0547-0.35938-1.5703-0.54297h0.003906c4.3672-1.582 8.5117-3.7383 12.316-6.4023v7.2656-0.003907c-3.5508 0.79297-7.25 0.68359-10.75-0.31641zm15-15.609v-0.003906c-0.85938 1.3672-2.0742 2.4727-3.5117 3.207-0.56641 0.3125-0.86328 0.95312-0.73828 1.5859-4.0898 0.91406-8.3594 0.65234-12.305-0.76562 6.3984-2.1367 12.426-5.2578 17.863-9.25 0.10547 1.8477-0.35156 3.6836-1.3086 5.2656zm-61.191 3.1094h-5.5586c-0.76562 0-1.3867 0.62109-1.3867 1.3867v4.168h-4.168c-0.76562 0-1.3867 0.62109-1.3867 1.3867v5.5586c0 0.36719 0.14453 0.71875 0.40625 0.98047 0.25781 0.26172 0.61328 0.40625 0.98047 0.40625h4.168v4.168c0 0.36719 0.14453 0.72266 0.40625 0.98047 0.26172 0.26172 0.61328 0.40625 0.98047 0.40625h5.5586c0.36719 0 0.71875-0.14453 0.98047-0.40625 0.26172-0.25781 0.40625-0.61328 0.40625-0.98047v-4.168h4.168c0.36719 0 0.72266-0.14453 0.98047-0.40625 0.26172-0.26172 0.40625-0.61328 0.40625-0.98047v-5.5586c0-0.36719-0.14453-0.71875-0.40625-0.98047-0.25781-0.26172-0.61328-0.40625-0.98047-0.40625h-4.168v-4.168c0-0.36719-0.14453-0.72266-0.40625-0.98047-0.26172-0.26172-0.61328-0.40625-0.98047-0.40625zm4.168 8.332v2.7773c-6.3906 0-5.5547-0.80469-5.5547 5.5547h-2.7812c0-6.375 0.79297-5.5547-5.5547-5.5547v-2.7773c6.375 0 5.5547 0.80469 5.5547-5.5547h2.7773c0 6.3594-0.82031 5.5547 5.5547 5.5547z"/>
<text x="0.0" y="117.5" font-size="5.0" font-weight="bold" font-family="Arbeit Regular, Helvetica, Arial-Unicode, Arial, Sans-serif" fill="#000000">Created by Muhammad Fadli Rusady</text><text x="0.0" y="122.5" font-size="5.0" font-weight="bold" font-family="Arbeit Regular, Helvetica, Arial-Unicode, Arial, Sans-serif" fill="#000000">from Noun Project</text></svg>