<?xml version="1.0" encoding="UTF-8" standalone="no"?>
<svg
   version="1.1"
   viewBox="-5.0 -10.0 110.0 135.0"
   id="svg28"
   sodipodi:docname="noun-remote-7878181_gray.svg"
   inkscape:version="1.4.2 (ebf0e940, 2025-05-08)"
   xmlns:inkscape="http://www.inkscape.org/namespaces/inkscape"
   xmlns:sodipodi="http://sodipodi.sourceforge.net/DTD/sodipodi-0.dtd"
   xmlns="http://www.w3.org/2000/svg"
   xmlns:svg="http://www.w3.org/2000/svg">
  <defs
     id="defs28" />
  <sodipodi:namedview
     id="namedview28"
     pagecolor="#ffffff"
     bordercolor="#000000"
     borderopacity="0.25"
     inkscape:showpageshadow="2"
     inkscape:pageopacity="0.0"
     inkscape:pagecheckerboard="0"
     inkscape:deskcolor="#d1d1d1"
     showgrid="false"
     inkscape:zoom="5.162963"
     inkscape:cx="55.007174"
     inkscape:cy="67.5"
     inkscape:window-width="1512"
     inkscape:window-height="916"
     inkscape:window-x="0"
     inkscape:window-y="38"
     inkscape:window-maximized="1"
     inkscape:current-layer="svg28" />
  <path
     d="m68.395 17.453c-0.65234-0.65234-1.5-1.0312-2.4102-1.0742l-8.2109-0.42578c-1.0312-0.046875-2.0625 0.33203-2.7891 1.0742l-46.668 46.668c-7.7422 7.7422-7.8633 20.273-0.28906 27.938l0.27344 0.27344c3.8047 3.7891 8.8164 5.6836 13.832 5.6836 5.1211 0 10.273-1.9688 14.195-5.8789l46.742-46.742c0.68359-0.68359 1.0742-1.6367 1.0742-2.6055l0.007813-7.668c0-0.96875-0.39453-1.9102-1.0742-2.6055zm14.273 24.91c0 0.57422-0.24219 1.1523-0.65234 1.5625l-46.742 46.727c-7.1953 7.1953-18.832 7.2891-25.953 0.21094l-0.25781-0.25781c-7.0156-7.0898-6.8789-18.695 0.28906-25.863l46.684-46.684c0.41016-0.41016 0.98438-0.65234 1.5625-0.65234h0.12109l8.2109 0.42578c0.54687 0.03125 1.0625 0.25781 1.4531 0.65234l14.652 14.652c0.41016 0.41016 0.65234 0.98438 0.65234 1.5625l-0.003906 7.6641z"
     id="path1"
     style="fill:#808080" />
  <path
     d="m62.305 27.742c1.0469 0 2.0898-0.39453 2.8789-1.1953 0.77344-0.77344 1.1953-1.7891 1.1953-2.8789 0-1.0898-0.42578-2.1055-1.1953-2.8789-1.5898-1.5898-4.1836-1.5898-5.7578 0-0.77344 0.77344-1.1953 1.7891-1.1953 2.8789 0 1.0898 0.42578 2.1055 1.1953 2.8789 0.80078 0.80078 1.8477 1.1953 2.8789 1.1953zm-1.8359-5.9102c0.51562-0.51562 1.1836-0.75781 1.8477-0.75781 0.66797 0 1.332 0.25781 1.8477 0.75781 0.5 0.5 0.75781 1.1523 0.75781 1.8477 0 0.69531-0.27344 1.3477-0.75781 1.8477-1.0156 1.0156-2.6836 1.0156-3.6953 0-0.5-0.5-0.77344-1.1523-0.77344-1.8477 0-0.71094 0.27344-1.3633 0.77344-1.8477z"
     id="path2"
     style="fill:#808080" />
  <path
     d="m73.969 35.316c-0.77344 0.77344-1.1953 1.7891-1.1953 2.8789 0 1.0898 0.42578 2.1055 1.1953 2.8789 0.78906 0.78906 1.832 1.1953 2.8789 1.1953s2.0898-0.39453 2.8789-1.1953c1.5898-1.5898 1.5898-4.168 0-5.7578-1.5898-1.5742-4.1797-1.5898-5.7578 0zm4.7266 4.7305c-1.0156 1.0156-2.668 1.0156-3.6953 0-0.5-0.5-0.75781-1.1523-0.75781-1.8477 0-0.69531 0.27344-1.3477 0.75781-1.8477 0.51562-0.51562 1.1836-0.75781 1.8477-0.75781 0.66797 0 1.332 0.25781 1.8477 0.75781 1.0156 1.0273 1.0156 2.6797 0 3.6953z"
     id="path3"
     style="fill:#808080" />
  <path
     d="m69.695 40.742c-0.28906-0.28906-0.74219-0.28906-1.0312 0-0.28906 0.28906-0.28906 0.74219 0 1.0312l4.6055 4.6055c0.13672 0.13672 0.33203 0.21094 0.51562 0.21094s0.37891-0.074219 0.51562-0.21094c0.28906-0.28906 0.28906-0.74219 0-1.0312z"
     id="path4"
     style="fill:#808080" />
  <path
     d="m61.695 33.789c-0.28906 0.28906-0.28906 0.74219 0 1.0312l4.6055 4.6055c0.13672 0.13672 0.33203 0.21094 0.51562 0.21094s0.37891-0.074219 0.51562-0.21094c0.28906-0.28906 0.28906-0.74219 0-1.0312l-4.6055-4.6055c-0.27344-0.28906-0.74219-0.28906-1.0312 0z"
     id="path5"
     style="fill:#808080" />
  <path
     d="m59.062 32.184c0.13672 0.13672 0.33203 0.21094 0.51562 0.21094s0.37891-0.074219 0.51562-0.21094c0.28906-0.28906 0.28906-0.74219 0-1.0312l-4.6055-4.6055c-0.28906-0.28906-0.74219-0.28906-1.0312 0-0.28906 0.28906-0.28906 0.74219 0 1.0312z"
     id="path6"
     style="fill:#808080" />
  <path
     d="m65.426 45.016c-0.28906-0.28906-0.74219-0.28906-1.0312 0-0.28906 0.28906-0.28906 0.74219 0 1.0312l4.6055 4.6055c0.13672 0.13672 0.33203 0.21094 0.51562 0.21094s0.37891-0.074219 0.51562-0.21094c0.28906-0.28906 0.28906-0.74219 0-1.0312z"
     id="path7"
     style="fill:#808080" />
  <path
     d="m62.562 43.926c0.18359 0 0.37891-0.074219 0.51562-0.21094 0.28906-0.28906 0.28906-0.74219 0-1.0312l-4.6055-4.6055c-0.28906-0.28906-0.74219-0.28906-1.0312 0-0.28906 0.28906-0.28906 0.74219 0 1.0312l4.6055 4.6055c0.13672 0.13281 0.31641 0.21094 0.51562 0.21094z"
     id="path8"
     style="fill:#808080" />
  <path
     d="m54.789 36.453c0.13672 0.13672 0.33203 0.21094 0.51563 0.21094 0.18359 0 0.37891-0.074218 0.51562-0.21094 0.28906-0.28906 0.28906-0.74219 0-1.0312l-4.6055-4.6055c-0.28906-0.28906-0.74219-0.28906-1.0312 0-0.28906 0.28906-0.28906 0.74219 0 1.0312z"
     id="path9"
     style="fill:#808080" />
  <path
     d="m61.137 49.305c-0.28906-0.28906-0.74219-0.28906-1.0312 0-0.28906 0.28906-0.28906 0.74219 0 1.0312l4.6055 4.6055c0.13672 0.13672 0.33203 0.21094 0.51562 0.21094 0.18359 0 0.37891-0.074219 0.51563-0.21094 0.28906-0.28906 0.28906-0.74219 0-1.0312z"
     id="path10"
     style="fill:#808080" />
  <path
     d="m53.152 42.348c-0.28906 0.28906-0.28906 0.74219 0 1.0312l4.6055 4.6055c0.13672 0.13672 0.33203 0.21094 0.51563 0.21094 0.18359 0 0.37891-0.074218 0.51562-0.21094 0.28906-0.28906 0.28906-0.74219 0-1.0312l-4.6055-4.6055c-0.27344-0.28516-0.74609-0.28516-1.0312 0z"
     id="path11"
     style="fill:#808080" />
  <path
     d="m50.516 40.727c0.13672 0.13672 0.33203 0.21094 0.51562 0.21094s0.37891-0.074219 0.51562-0.21094c0.28906-0.28906 0.28906-0.74219 0-1.0312l-4.6055-4.6055c-0.28906-0.28906-0.74219-0.28906-1.0312 0-0.28906 0.28906-0.28906 0.74219 0 1.0312z"
     id="path12"
     style="fill:#808080" />
  <path
     d="m56.863 53.574c-0.28906-0.28906-0.74219-0.28906-1.0312 0-0.28906 0.28906-0.28906 0.74219 0 1.0312l4.6055 4.6055c0.13672 0.13672 0.33203 0.21094 0.51562 0.21094s0.37891-0.074219 0.51562-0.21094c0.28906-0.28906 0.28906-0.74219 0-1.0312z"
     id="path13"
     style="fill:#808080" />
  <path
     d="m49.91 46.621c-0.28906-0.28906-0.74219-0.28906-1.0312 0-0.28906 0.28906-0.28906 0.74219 0 1.0312l4.6055 4.6055c0.13672 0.13672 0.33203 0.21094 0.51562 0.21094s0.37891-0.074219 0.51562-0.21094c0.28906-0.28906 0.28906-0.74219 0-1.0312z"
     id="path14"
     style="fill:#808080" />
  <path
     d="m46.227 45.016c0.13672 0.13672 0.33203 0.21094 0.51563 0.21094 0.18359 0 0.37891-0.074218 0.51562-0.21094 0.28906-0.28906 0.28906-0.74219 0-1.0312l-4.6055-4.6055c-0.28906-0.28906-0.74219-0.28906-1.0312 0-0.28906 0.28906-0.28906 0.74219 0 1.0312z"
     id="path15"
     style="fill:#808080" />
  <path
     d="m31.727 52.727c-2.1055 2.1055-3.2578 4.8945-3.2578 7.8789 0 2.9688 1.1523 5.7734 3.2578 7.8789 2.168 2.168 5.0156 3.2578 7.8789 3.2578s5.6953-1.0898 7.8789-3.2578c4.332-4.332 4.332-11.41 0-15.742-4.332-4.332-11.41-4.3477-15.758-0.015626zm14.711 14.711c-3.7734 3.7734-9.9102 3.7734-13.668 0-1.832-1.832-2.832-4.2578-2.832-6.832s1-5.0156 2.832-6.832c1.8789-1.8789 4.3633-2.832 6.832-2.832s4.9531 0.9375 6.832 2.832c3.7773 3.7578 3.7773 9.8945 0.003906 13.664z"
     id="path16"
     style="fill:#808080" />
  <path
     d="m35.332 56.332c-2.3633 2.3633-2.3477 6.1953 0 8.5469 1.1367 1.1367 2.6523 1.7734 4.2734 1.7734 1.6211 0 3.1367-0.62109 4.2734-1.7734 2.3633-2.3633 2.3633-6.1953 0-8.5469-2.3633-2.3633-6.1953-2.3633-8.5469 0zm7.5156 7.5156c-0.86328 0.86328-2.0156 1.332-3.2422 1.332-1.2266 0-2.3789-0.46875-3.2422-1.332-1.7891-1.7891-1.7891-4.6953 0-6.4844 0.89453-0.89453 2.0625-1.332 3.2422-1.332 1.168 0 2.3477 0.4375 3.2422 1.332 1.7891 1.7891 1.7891 4.6992 0 6.4844z"
     id="path17"
     style="fill:#808080" />
  <path
     d="m16.574 64c-1.3945 1.3945-1.3945 3.668 0 5.0742l0.03125 0.03125c0.69531 0.69531 1.6055 1.0469 2.5156 1.0469 0.92578 0 1.8633-0.36328 2.5898-1.0742 1.3945-1.3945 1.3945-3.668-0.03125-5.1055-1.3906-1.4102-3.6641-1.4102-5.1055 0.027344zm4.0781 4.0625c-0.83203 0.83203-2.168 0.83203-3 0l-0.03125-0.03125c-0.39453-0.39453-0.62109-0.9375-0.62109-1.5s0.22656-1.1055 0.65234-1.5312c0.39453-0.39453 0.9375-0.62109 1.5-0.62109s1.1055 0.22656 1.5312 0.65234c0.39453 0.39453 0.62109 0.9375 0.62109 1.5 0 0.55859-0.21484 1.0898-0.65234 1.5312z"
     id="path18"
     style="fill:#808080" />
  <path
     d="m23.848 71.258c-1.3945 1.3945-1.3945 3.668 0 5.0742l0.03125 0.03125c0.69531 0.69531 1.6055 1.0469 2.5156 1.0469 0.92578 0 1.8633-0.36328 2.5898-1.0742 0.68359-0.68359 1.0469-1.5742 1.0469-2.5312 0-0.95313-0.37891-1.8633-1.0898-2.5742-1.3945-1.3984-3.668-1.3984-5.0938 0.027343zm4.0625 4.0742c-0.83203 0.83203-2.168 0.83203-3 0l-0.03125-0.03125c-0.83203-0.83203-0.83203-2.168 0.03125-3.0312 0.41016-0.41016 0.9375-0.62109 1.4844-0.62109 0.5625 0 1.1055 0.21094 1.5469 0.65234 0.39453 0.39453 0.62109 0.9375 0.62109 1.5 0.011719 0.5625-0.21484 1.0938-0.65234 1.5312z"
     id="path19"
     style="fill:#808080" />
  <path
     d="m31.105 78.531c-1.3945 1.3945-1.3945 3.668 0 5.0742l0.03125 0.03125c0.68359 0.68359 1.5742 1.0469 2.5312 1.0469 0.95312 0 1.8633-0.37891 2.5742-1.0898 1.3945-1.3945 1.3945-3.668-0.03125-5.1055-1.3477-1.3516-3.6797-1.3828-5.1055 0.042969zm4.0781 4.0586c-0.80469 0.80469-2.1953 0.80469-3 0l-0.03125-0.03125c-0.83203-0.83203-0.83203-2.168 0.03125-3.0312 0.39453-0.39453 0.9375-0.62109 1.5-0.62109s1.1055 0.22656 1.5312 0.65234c0.83203 0.83594 0.83203 2.168-0.03125 3.0312z"
     id="path20"
     style="fill:#808080" />
  <path
     d="m9.2891 71.289c-1.3945 1.3945-1.3945 3.668 0 5.0742l0.03125 0.03125c0.69531 0.69531 1.6055 1.0469 2.5156 1.0469 0.92578 0 1.8633-0.36328 2.5898-1.0742 1.3945-1.3945 1.3945-3.668-0.03125-5.1055-1.3945-1.4141-3.668-1.4141-5.1055 0.027343zm4.0742 4.0586c-0.80469 0.80469-2.1953 0.80469-3 0l-0.03125-0.03125c-0.39453-0.39453-0.62109-0.9375-0.62109-1.5s0.22656-1.1055 0.65234-1.5312c0.41016-0.41016 0.9375-0.62109 1.4844-0.62109 0.5625 0 1.1055 0.21094 1.5469 0.65234 0.39453 0.39453 0.62109 0.9375 0.62109 1.5s-0.21094 1.0938-0.65234 1.5312z"
     id="path21"
     style="fill:#808080" />
  <path
     d="m16.562 78.547c-1.3945 1.3945-1.3945 3.668 0 5.0742l0.03125 0.03125c0.69531 0.69531 1.6055 1.0469 2.5156 1.0469 0.92578 0 1.8633-0.36328 2.5898-1.0742 1.3945-1.3945 1.3945-3.668-0.03125-5.1055-1.4102-1.3984-3.6836-1.3984-5.1055 0.027344zm4.0586 4.0742c-0.83203 0.83203-2.168 0.83203-3 0l-0.03125-0.03125c-0.83203-0.83203-0.83203-2.168 0.03125-3.0312 0.39453-0.39453 0.9375-0.62109 1.5-0.62109s1.1055 0.22656 1.5312 0.65234c0.83203 0.82031 0.83203 2.168-0.03125 3.0312z"
     id="path22"
     style="fill:#808080" />
  <path
     d="m23.816 85.816c-1.3945 1.3945-1.3945 3.668 0 5.0742l0.03125 0.03125c0.69531 0.69531 1.6055 1.0469 2.5156 1.0469 0.92578 0 1.8633-0.36328 2.5898-1.0742 1.3945-1.3945 1.3945-3.668-0.03125-5.1055-1.3906-1.4102-3.6641-1.4102-5.1055 0.027344zm4.0781 4.0625c-0.83203 0.83203-2.168 0.83203-3 0l-0.03125-0.03125c-0.83203-0.83203-0.83203-2.168 0.03125-3.0312 0.41016-0.41016 0.9375-0.62109 1.4844-0.62109 0.5625 0 1.1055 0.21094 1.5469 0.65234 0.83203 0.83594 0.83203 2.168-0.03125 3.0312z"
     id="path23"
     style="fill:#808080" />
  <path
     d="m77.438 2.4258c-0.41016 0-0.72656 0.33203-0.72656 0.72656 0 0.39453 0.33203 0.72656 0.72656 0.72656 10.305 0 18.684 8.3789 18.684 18.684 0 0.41016 0.33203 0.72656 0.72656 0.72656 0.41016 0 0.72656-0.33203 0.72656-0.72656 0-11.109-9.0273-20.137-20.137-20.137z"
     id="path24"
     style="fill:#808080" />
  <path
     d="m77.438 7.3945c-0.41016 0-0.72656 0.33203-0.72656 0.72656 0 0.39453 0.33203 0.72656 0.72656 0.72656 7.5625 0 13.695 6.1523 13.695 13.695 0 0.41016 0.33203 0.72656 0.72656 0.72656s0.72656-0.33203 0.72656-0.72656c0.019531-8.3477-6.7812-15.148-15.148-15.148z"
     id="path25"
     style="fill:#808080" />
  <path
     d="m77.438 12.379c-0.41016 0-0.72656 0.33203-0.72656 0.72656 0 0.41016 0.33203 0.72656 0.72656 0.72656 4.8164 0 8.7266 3.9102 8.7266 8.7266 0 0.41016 0.33203 0.72656 0.72656 0.72656s0.72656-0.33203 0.72656-0.72656c0.019531-5.6211-4.5547-10.18-10.18-10.18z"
     id="path26"
     style="fill:#808080" />
  <path
     d="m81.195 22.562c0 0.41016 0.33203 0.72656 0.72656 0.72656s0.72656-0.33203 0.72656-0.72656c0-2.8789-2.332-5.2109-5.2109-5.2109-0.41016 0-0.72656 0.33203-0.72656 0.72656s0.33203 0.72656 0.72656 0.72656c2.0781 0.011718 3.7578 1.6953 3.7578 3.7578z"
     id="path27"
     style="fill:#808080" />
</svg>
