<?xml version="1.0" encoding="UTF-8" standalone="no"?>
<svg
   version="1.1"
   viewBox="-5.0 -10.0 110.0 135.0"
   id="svg2"
   sodipodi:docname="noun-box-7866541_gray.svg"
   inkscape:version="1.4.2 (ebf0e940, 2025-05-08)"
   xmlns:inkscape="http://www.inkscape.org/namespaces/inkscape"
   xmlns:sodipodi="http://sodipodi.sourceforge.net/DTD/sodipodi-0.dtd"
   xmlns="http://www.w3.org/2000/svg"
   xmlns:svg="http://www.w3.org/2000/svg">
  <defs
     id="defs2" />
  <sodipodi:namedview
     id="namedview2"
     pagecolor="#ffffff"
     bordercolor="#000000"
     borderopacity="0.25"
     inkscape:showpageshadow="2"
     inkscape:pageopacity="0.0"
     inkscape:pagecheckerboard="0"
     inkscape:deskcolor="#d1d1d1"
     showgrid="false"
     inkscape:zoom="5.162963"
     inkscape:cx="55.007174"
     inkscape:cy="67.5"
     inkscape:window-width="1512"
     inkscape:window-height="916"
     inkscape:window-x="0"
     inkscape:window-y="38"
     inkscape:window-maximized="1"
     inkscape:current-layer="svg2" />
  <path
     d="m10.16 22.73c-0.19922 0.32031-0.21094 0.73047-0.011718 1.0508l8.1406 13.512v38.262c0 0.46875 0.32813 0.87891 0.78906 0.98047l34.879 7.6797c0.070313 0 0.14062 0.019531 0.21094 0.019531 0.078125 0 0.16016 0 0.23828-0.03125l25.172-6.2695c0.44922-0.10938 0.76172-0.51172 0.76172-0.96875v-38.75l9.4805-13.531c0.23047-0.32031 0.23828-0.75 0.039063-1.0898s-0.58984-0.53125-0.98047-0.48047l-3.8516 0.46094 0.80078-1.9609c0.12109-0.30078 0.089844-0.62891-0.078125-0.91016-0.17188-0.28125-0.46094-0.44922-0.78125-0.46875l-33.281-2.3008c-0.41016-0.019532-0.80078 0.19922-0.98047 0.57812l-4.1602 8.9805-0.73828-1.1602c-0.16016-0.26172-0.44141-0.42969-0.73828-0.46094l-1.2695-0.12891-1.7188-9.1914c-0.089843-0.5-0.53906-0.83984-1.0508-0.80859l-25.07 1.6719c-0.28125 0.019532-0.53125 0.14844-0.71094 0.35938-0.17969 0.21094-0.25 0.48828-0.21875 0.76172l0.55078 4.1914-4.5-0.48047c-0.37891-0.039063-0.75 0.14062-0.94922 0.46094zm43.012 59.258-32.879-7.2383v-36.602l32.879 4.1016zm25.168-5.7969-23.172 5.7695v-39.711l23.172-3.1914zm8.5586-50.812-8.1289 11.602-22.488 3.1016 8.2812-12.031 22.34-2.6602zm-34.648-5.3789 31.211 2.1602-0.69922 1.7109-18.891 2.25c-0.28906 0.03125-0.53906 0.19141-0.71094 0.42969l-8.9609 13.031-6.3711-10.039 4.4102-9.5195zm-11.961-2.1797 1.4492 7.7188-24.09-2.5703-0.48047-3.6211 23.121-1.5391zm4.1016 10.02 7.8008 12.281-32.301-4.0312-7-11.609z"
     id="path1"
     style="fill:#808080" />
</svg>
