<?xml version="1.0" encoding="UTF-8" standalone="no"?>
<svg
   version="1.1"
   viewBox="-5.0 -10.0 110.0 135.0"
   id="svg9"
   sodipodi:docname="noun-candle-7724334_gray.svg"
   inkscape:version="1.4.2 (ebf0e940, 2025-05-08)"
   xmlns:inkscape="http://www.inkscape.org/namespaces/inkscape"
   xmlns:sodipodi="http://sodipodi.sourceforge.net/DTD/sodipodi-0.dtd"
   xmlns="http://www.w3.org/2000/svg"
   xmlns:svg="http://www.w3.org/2000/svg">
  <defs
     id="defs9" />
  <sodipodi:namedview
     id="namedview9"
     pagecolor="#ffffff"
     bordercolor="#000000"
     borderopacity="0.25"
     inkscape:showpageshadow="2"
     inkscape:pageopacity="0.0"
     inkscape:pagecheckerboard="0"
     inkscape:deskcolor="#d1d1d1"
     showgrid="false"
     inkscape:zoom="5.162963"
     inkscape:cx="51.908178"
     inkscape:cy="44.257532"
     inkscape:window-width="1512"
     inkscape:window-height="916"
     inkscape:window-x="0"
     inkscape:window-y="38"
     inkscape:window-maximized="1"
     inkscape:current-layer="svg9" />
  <path
     d="m70.918 81.215-45.012 0.039062h0.027344c-0.44141 0.019532-0.87891 0.23047-1.168 0.56641l-0.03125 0.035157 0.03125-0.035157c-0.28906 0.33594-0.43359 0.80078-0.38281 1.2383 0.039063 0.38281 0.22656 0.75391 0.50781 1.0156 0.28125 0.26562 0.66406 0.42188 1.0469 0.4375h-0.023438l45.051-0.035157-0.019532 0.003907c0.42188-0.015625 0.83984-0.20312 1.1328-0.50781 0.28906-0.30078 0.45703-0.73047 0.44922-1.1523-0.003906-0.41797-0.18359-0.83594-0.48047-1.1289-0.29688-0.29688-0.71875-0.47266-1.1367-0.47656h0.007813m0-1.2734h0.003906c0.75391 0.007813 1.4922 0.31641 2.0234 0.84375 0.53125 0.53125 0.84766 1.2656 0.85938 2.0156 0.007812 0.75781-0.28516 1.5078-0.80469 2.0547-0.52344 0.54688-1.2578 0.875-2.0156 0.89844h-0.019531l-45.051 0.035156-0.027343-0.003906c-0.69141-0.027344-1.3633-0.30469-1.8672-0.77734-0.50391-0.47266-0.83203-1.125-0.90625-1.8125-0.085937-0.78906 0.16797-1.6016 0.68359-2.2031l0.035156-0.039063-0.03125 0.035156c0.51562-0.60156 1.2812-0.97266 2.0742-1.0078h0.027344z"
     id="path1"
     style="fill:#808080" />
  <path
     d="m68.758 85.605-3.8984 5.3828 0.011719-0.015625c-0.49609 0.72656-1.1719 1.332-1.957 1.7383l-0.007812 0.003906 0.007812-0.003906c-0.73828 0.38281-1.5625 0.58984-2.3945 0.59766h-0.007812l-24.086-0.039063h0.023438c-0.066407 0-0.12891 0.003907-0.19531 0.003907-0.82422 0-1.6445-0.19922-2.3789-0.57813-0.67578-0.34766-1.2695-0.84375-1.7344-1.4453l-0.007813-0.011719-3.9727-5.4297c-0.21094-0.28125-0.14844-0.68359 0.13672-0.89062s0.68359-0.14453 0.89062 0.13672l3.9727 5.4297-0.007812-0.011719c0.34766 0.45312 0.79688 0.82812 1.3047 1.0898 0.55469 0.28516 1.1758 0.43359 1.7969 0.43359h0.14844l0.023437-0.003906 24.086 0.042968h-0.007813c0.63281-0.007812 1.2617-0.16406 1.8242-0.45703l0.007813-0.003906-0.007813 0.003906c0.59375-0.30859 1.1133-0.76953 1.4883-1.3242l0.011719-0.015625 3.8984-5.3789c0.20703-0.28516 0.60547-0.35156 0.89063-0.14453 0.28516 0.20703 0.34766 0.60547 0.14062 0.89062z"
     id="path2"
     style="fill:#808080" />
  <path
     d="m59.902 52.047 0.003906-2.9375v0.015625c-0.015625-0.76562-0.36719-1.5234-0.9375-2.0352-0.51172-0.46094-1.207-0.72266-1.8984-0.72266-0.10156 0-0.19922 0.007812-0.30078 0.015624l-0.070312 0.003907-16.141-0.003907-0.042969-0.003906c-0.070313-0.003906-0.13281-0.003906-0.20312-0.003906-0.92188 0-1.8438 0.39062-2.4766 1.0586-0.55078 0.58594-0.88672 1.3789-0.92188 2.1836v-0.03125l0.039063 13.156c0.003906 0.6875 0.26562 1.3711 0.72656 1.8789 0.45703 0.51172 1.1094 0.84375 1.793 0.91797h0.003906-0.003906c0.09375 0.011719 0.19531 0.015626 0.28906 0.015626 0.66797 0 1.3359-0.24219 1.8398-0.67188 0.57813-0.49219 0.94922-1.2383 0.98828-1.9961v0.023437l0.074218-4.2461v0.027344c-0.027343-1.1758 0.48828-2.3398 1.375-3.1094 0.72266-0.62891 1.6758-0.96875 2.625-0.96875 0.21484 0 0.42969 0.015625 0.64453 0.054688 0.91406 0.15234 1.7617 0.63281 2.3633 1.3359s0.94531 1.6133 0.95312 2.5391v-0.007813c0.015625 0.62109 0.26562 1.2383 0.6875 1.6914 0.42188 0.45313 1.0195 0.75 1.6367 0.8125 0.078125 0.007813 0.15625 0.011719 0.23828 0.011719 0.63672 0 1.2734-0.24609 1.7422-0.67188l-0.019532 0.019532 0.019532-0.019532c0.52734-0.48047 0.84375-1.1953 0.83984-1.9102v-0.007812l0.019531-1.9844v-0.027343c0.042969-0.84766 0.45313-1.668 1.1094-2.207 0.41016-0.33984 0.91016-0.56641 1.4336-0.65625l0.10547-0.007813h0.003906-0.039062c0.41797-0.019531 0.82812-0.21875 1.1016-0.53125 0.24609-0.27734 0.39062-0.64453 0.39844-1.0156v0.015625m1.2773 0.003906-0.003907 0.011719c-0.015625 0.66797-0.27344 1.3281-0.71484 1.8281-0.50391 0.56641-1.2305 0.92188-1.9844 0.96094l-0.035156 0.003907h-0.003906l0.10547-0.011719c-0.30469 0.050781-0.59766 0.18359-0.83594 0.38281-0.37891 0.3125-0.62109 0.79297-0.64453 1.2852l0.003906-0.023438-0.019531 1.9844v-0.007812c0.003906 1.0742-0.46484 2.1328-1.2578 2.8555l0.023438-0.019531h-0.003906l-0.019532 0.023438c-0.70703 0.64062-1.6523 1-2.6016 1-0.125 0-0.24219-0.007813-0.36328-0.019531-0.92578-0.089844-1.8125-0.52734-2.4453-1.2109-0.63281-0.68359-1.0039-1.5977-1.0273-2.5273v-0.007812c-0.007812-0.625-0.24219-1.25-0.64844-1.7266-0.40625-0.47656-0.98828-0.80469-1.6055-0.91016-0.14062-0.023437-0.28906-0.035156-0.43359-0.035156-0.65234 0-1.3047 0.23828-1.793 0.66016-0.59766 0.51953-0.95312 1.3203-0.93359 2.1133v0.027344l-0.074219 4.2422v0.023437c-0.058593 1.1094-0.58984 2.1797-1.4375 2.9023-0.73828 0.625-1.6992 0.97266-2.6641 0.97266-0.13672 0-0.28516-0.007813-0.42188-0.023437h-0.007813 0.003907c-0.99219-0.10547-1.9375-0.58594-2.6055-1.3281-0.66797-0.74219-1.0508-1.7305-1.0508-2.7305l-0.042969-13.156 0.003906-0.03125c0.046875-1.1094 0.50781-2.1914 1.2695-3 0.875-0.92578 2.1367-1.4609 3.4023-1.4609 0.09375 0 0.19141 0.003906 0.28516 0.011719l-0.039062-0.003906 16.141 0.007812-0.070313 0.003907c0.14844-0.015626 0.29297-0.023438 0.44141-0.023438 1 0 1.9961 0.37109 2.7461 1.043 0.83594 0.75 1.3398 1.8398 1.3672 2.9609v0.015625z"
     id="path3"
     style="fill:#808080" />
  <path
     d="m58.816 54.582c0.050782 8.4102 0.070313 16.836 0.0625 25.246l-0.003906 0.63281c0 0.35547-0.28516 0.64062-0.63672 0.63672-0.35156 0-0.63672-0.28516-0.63672-0.63672v-0.63281c0.011719-8.4141-0.007812-16.828-0.0625-25.242 0-0.35156 0.28516-0.63672 0.63672-0.64063 0.35156 0 0.63672 0.28125 0.64062 0.63672z"
     id="path4"
     style="fill:#808080" />
  <path
     d="m39.273 66.238-0.003907 13.902c0 0.35156-0.28516 0.63672-0.63672 0.63672-0.35156 0-0.63672-0.28516-0.63672-0.63672l0.003906-13.906c0-0.35156 0.28516-0.63672 0.63672-0.63672 0.35156 0 0.64062 0.28516 0.63672 0.64062z"
     id="path5"
     style="fill:#808080" />
  <path
     d="m46.02 45.652 0.03125-6.8945v0.042969c-0.027343-0.46094 0.15625-0.92188 0.48828-1.2383 0.29297-0.27734 0.6875-0.43359 1.0859-0.43359h0.035156-0.023437 0.003906l1.4844-0.003906h0.007812l-0.027343 0.003906c0.011719-0.003906 0.039062-0.003906 0.035156-0.003906 0.39453 0 0.78516 0.14844 1.082 0.41016 0.36328 0.31641 0.57031 0.79297 0.55859 1.2734v-0.015625l-0.027344 6.957c-0.003906 0.35156-0.28906 0.63672-0.64062 0.63672-0.35156-0.003907-0.63672-0.28906-0.63672-0.64062l0.03125-6.957v-0.015624c0-0.10156-0.046874-0.21484-0.125-0.28125-0.066406-0.058594-0.15625-0.089844-0.24219-0.089844h0.019531-1.5469 0.011719c-0.074219 0-0.15234 0.03125-0.20703 0.082031-0.0625 0.058594-0.097657 0.15234-0.09375 0.23828v0.042969l-0.03125 6.8906c0 0.35156-0.28906 0.63672-0.64062 0.63672-0.35156-0.003907-0.63672-0.28906-0.63281-0.64062z"
     id="path6"
     style="fill:#808080" />
  <path
     d="m44.656 36.43-0.046875-0.019532c-2.0469-0.89844-4.2812-1.8711-5.7539-3.7617-1.5-1.9297-2.1719-4.7422-1.1914-7.9414 0.88672-2.8984 3.1406-6.1211 4.9883-8.7773 0.12891-0.18359 0.33594-0.48047 0.46094-0.66016 1.9453-2.8047 3.3594-5 4.7812-7.2031 0.11719-0.18359 0.31641-0.29297 0.53516-0.29297 0.21484 0 0.41797 0.10937 0.53516 0.29297l0.0625 0.097656c1.3633 2.1133 2.7344 4.2422 4.6641 7.0039 0.11328 0.16016 0.33984 0.48438 0.45703 0.65625 0.17187 0.24609 0.3125 0.44531 0.49219 0.69922 1.7578 2.5195 3.7617 5.5 4.5508 8.2109 0.95703 3.2695 0.15234 6.1328-1.3516 8.043-1.4961 1.9023-3.6562 2.8164-5.6289 3.6641-0.24609 0.10547-0.53125 0.046875-0.71484-0.14844-0.18359-0.19141-0.22656-0.48047-0.10938-0.71875 0.62109-1.2656 1.1172-2.3242 0.97266-3.4648-0.15234-1.1797-1.0039-2.5508-1.9023-3.8086-0.875-1.2266-1.6836-2.1992-2.5117-3.1992l0.039063 0.042969 0.9375-0.039062c-0.85938 1.0195-1.6953 2.0117-2.5664 3.2305-0.89844 1.25-1.7188 2.5898-1.8555 3.7578-0.13281 1.1328 0.36719 2.1992 0.98828 3.4766 0.11328 0.23828 0.070313 0.52734-0.11719 0.71875-0.18359 0.19141-0.46875 0.25-0.71484 0.14063m0.51172-1.1641-0.82812 0.85938c-0.58594-1.2031-1.293-2.6133-1.1055-4.1836 0.17969-1.5312 1.2031-3.1211 2.082-4.3477 0.90625-1.2656 1.7773-2.2969 2.6328-3.3125 0.11328-0.13672 0.28125-0.21875 0.45703-0.22656 0.17969-0.003907 0.35156 0.0625 0.48047 0.1875l0.039062 0.046874c0.82812 0.99609 1.6641 2.0039 2.5703 3.2695 0.87891 1.2305 1.9297 2.8477 2.125 4.3906 0.20312 1.582-0.50391 2.9883-1.0898 4.1836l-0.82422-0.86328c2.0273-0.87109 3.8672-1.6719 5.1289-3.2773 1.2539-1.5977 1.9688-4.0312 1.1328-6.9023-0.72266-2.4766-2.5938-5.2812-4.375-7.8359-0.19141-0.27734-0.30078-0.42969-0.48828-0.69922-0.10156-0.14844-0.36328-0.51563-0.46094-0.65625-1.9414-2.7852-3.3242-4.9297-4.6875-7.043l-0.0625-0.097657h1.0703c-1.418 2.1953-2.8477 4.418-4.8047 7.2383-0.058594 0.085937-0.39453 0.57031-0.46094 0.66406-1.8867 2.707-4 5.7539-4.8164 8.4219-0.86328 2.8203-0.25391 5.1992 0.98047 6.7812 1.2383 1.5938 3.1484 2.457 5.2578 3.3789l0.050781 0.023437z"
     id="path7"
     style="fill:#808080" />
  <path
     d="m69.867 80.508 0.10547-9.8398v0.003906c0.003906-1.4336 0.67969-2.8477 1.7969-3.75 0.86719-0.70703 1.9766-1.082 3.082-1.082 0.32031 0 0.64453 0.03125 0.96094 0.097656 1.0859 0.22266 2.0859 0.83203 2.7852 1.6953 0.69922 0.86328 1.0898 1.9688 1.0859 3.0781l-0.003906-0.03125c0.015624 0.35547 0.19531 0.70312 0.46875 0.92578 0.21875 0.17578 0.50781 0.27344 0.79687 0.27344 0.070313 0 0.13672-0.003906 0.20703-0.015625 0.28906-0.050781 0.5625-0.20703 0.75-0.43359 0.1875-0.22656 0.29688-0.52734 0.29297-0.82031v0.011719c-0.066406-2.043-1.0312-4.0469-2.5859-5.375-1.3242-1.125-3.0664-1.7539-4.8086-1.7539-0.30469 0-0.60938 0.019531-0.91016 0.058593-1.7812 0.23047-3.4688 1.1406-4.6406 2.5039-1.1719 1.3594-1.8203 3.168-1.7773 4.9648v0.023438l-0.14844 9.4258c-0.007813 0.35156-0.29688 0.63281-0.64844 0.62891-0.35156-0.003906-0.63281-0.29688-0.625-0.64844l0.14453-9.4258v0.023437c-0.046874-2.1094 0.71094-4.2227 2.0859-5.8242 1.3789-1.6016 3.3516-2.668 5.4492-2.9375 0.35156-0.042968 0.71484-0.066406 1.0703-0.066406 2.0391 0 4.0742 0.73047 5.6328 2.0586 1.832 1.5586 2.957 3.9023 3.0352 6.3047v0.011719c0.007812 0.59766-0.20312 1.1914-0.58594 1.6484-0.37891 0.46094-0.92578 0.77734-1.5156 0.87891-0.14063 0.023437-0.28125 0.035156-0.42188 0.035156-0.57031 0-1.1445-0.19531-1.5938-0.55859-0.5625-0.44922-0.91016-1.1406-0.94531-1.8594v-0.03125c0.003906-0.81641-0.28516-1.6367-0.79688-2.2695-0.51562-0.63672-1.2578-1.0859-2.0547-1.2539-0.23047-0.046875-0.46484-0.070313-0.70313-0.070313-0.82422 0-1.6484 0.28516-2.2812 0.79688-0.81641 0.66406-1.3203 1.7148-1.3242 2.7656v0.007813l-0.10547 9.8398c-0.003906 0.35156-0.29297 0.63281-0.64453 0.62891-0.35156-0.003906-0.63281-0.29297-0.62891-0.64453z"
     id="path8"
     style="fill:#808080" />
</svg>
