<?xml version="1.0" encoding="UTF-8" standalone="no"?>
<svg
   viewBox="-0.52916665 -1.0583334000000002 11.641666299999999 14.287500900000001"
   version="1.1"
   x="0px"
   y="0px"
   id="svg2"
   sodipodi:docname="noun-cup-4767037_gray.svg"
   inkscape:version="1.4.2 (ebf0e940, 2025-05-08)"
   xmlns:inkscape="http://www.inkscape.org/namespaces/inkscape"
   xmlns:sodipodi="http://sodipodi.sourceforge.net/DTD/sodipodi-0.dtd"
   xmlns="http://www.w3.org/2000/svg"
   xmlns:svg="http://www.w3.org/2000/svg">
  <defs
     id="defs2" />
  <sodipodi:namedview
     id="namedview2"
     pagecolor="#ffffff"
     bordercolor="#000000"
     borderopacity="0.25"
     inkscape:showpageshadow="2"
     inkscape:pageopacity="0.0"
     inkscape:pagecheckerboard="0"
     inkscape:deskcolor="#d1d1d1"
     showgrid="false"
     inkscape:zoom="48.783897"
     inkscape:cx="5.8215931"
     inkscape:cy="7.1437507"
     inkscape:window-width="1512"
     inkscape:window-height="916"
     inkscape:window-x="0"
     inkscape:window-y="38"
     inkscape:window-maximized="1"
     inkscape:current-layer="svg2" />
  <g
     id="g1"
     style="fill:#808080">
    <path
       style="color:#000000;fill:#808080"
       d="m 1.7775717,2.5926072 a 0.26460931,0.26460931 0 0 0 -0.2645834,0.264583 v 1.208712 c 0,0.975786 0.4006215,1.857341 1.0469642,2.486152 H 1.0582357 A 0.26460931,0.26460931 0 0 0 0.80760389,6.9008702 C 1.021165,7.5361272 1.6229624,7.9907262 2.328958,7.9907262 h 5.1221693 c 0.7060035,0 1.3083116,-0.454599 1.52187,-1.089856 A 0.26460931,0.26460931 0 0 0 8.7218496,6.5520542 H 7.3612113 c 0.2416651,-0.235093 0.4490746,-0.505531 0.6139153,-0.80305 h 0.7374229 a 0.26460931,0.26460931 0 0 0 0.1312571,-0.03462 c 0.5643668,-0.322247 0.945679,-0.921838 0.945679,-1.607138 v -0.60565 A 0.26460931,0.26460931 0 0 0 9.5249023,3.2370132 H 8.4081754 V 2.8571902 A 0.26460931,0.26460931 0 0 0 8.1435921,2.5926072 Z m 0.2645833,0.529167 h 5.8368538 v 0.944128 c 0,1.054217 -0.545981,1.969577 -1.3689092,2.486152 H 3.4110642 C 2.5881439,6.0354822 2.042155,5.1201192 2.042155,4.0659022 Z m 6.3660204,0.644406 H 9.260319 v 0.341063 c 0,0.466855 -0.2446232,0.872834 -0.6221836,1.112594 H 8.2123203 c 0.1266904,-0.360979 0.1958551,-0.749305 0.1958551,-1.153935 z m -6.9024208,3.315041 h 6.7690947 c -0.1960484,0.232614 -0.4898787,0.380338 -0.823722,0.380338 H 2.328958 c -0.3338327,0 -0.6271577,-0.147724 -0.8232034,-0.380338 z"
       fill="#000000"
       stroke-width="0.0047942"
       stroke-linejoin="round"
       id="path1" />
  </g>
</svg>
