<?xml version="1.0" encoding="UTF-8" standalone="no"?>
<svg
   viewBox="0 0 16.933333 21.1666675"
   version="1.1"
   x="0px"
   y="0px"
   id="svg2"
   sodipodi:docname="noun-book-5019555_gray.svg"
   inkscape:version="1.4.2 (ebf0e940, 2025-05-08)"
   xmlns:inkscape="http://www.inkscape.org/namespaces/inkscape"
   xmlns:sodipodi="http://sodipodi.sourceforge.net/DTD/sodipodi-0.dtd"
   xmlns="http://www.w3.org/2000/svg"
   xmlns:svg="http://www.w3.org/2000/svg">
  <defs
     id="defs2" />
  <sodipodi:namedview
     id="namedview2"
     pagecolor="#ffffff"
     bordercolor="#000000"
     borderopacity="0.25"
     inkscape:showpageshadow="2"
     inkscape:pageopacity="0.0"
     inkscape:pagecheckerboard="0"
     inkscape:deskcolor="#d1d1d1"
     inkscape:zoom="30.311323"
     inkscape:cx="5.6744472"
     inkscape:cy="6.449735"
     inkscape:window-width="1512"
     inkscape:window-height="916"
     inkscape:window-x="0"
     inkscape:window-y="38"
     inkscape:window-maximized="1"
     inkscape:current-layer="svg2" />
  <g
     transform="translate(0,0.5291667)"
     id="g1"
     style="fill:#808080">
    <path
       style="color:#000000;paint-order:fill markers stroke;fill:#808080"
       d="m 3.8728237,2.2237988 c -0.346107,-3.5e-4 -0.696294,0.02 -1.048922,0.061301 A 0.26455025,0.26455025 0 0 0 2.5901577,2.5478151 V 3.3859322 H 1.0582857 A 0.26455025,0.26455025 0 0 0 0.79375067,3.6504676 v 9.7362294 a 0.26455025,0.26455025 0 0 0 0.38595803,0.235005 c 1.96851,-1.017231 4.536903,-1.357578 7.246868,-0.940249 a 0.2645238,0.2645238 0 0 0 0.007,0 0.26455025,0.26455025 0 0 0 0.0331,6.5e-4 0.26455025,0.26455025 0 0 0 0.0331,-6.5e-4 0.2645238,0.2645238 0 0 0 0.007,0 c 2.7099563,-0.417329 5.2783383,-0.077 7.2468483,0.940249 a 0.26455025,0.26455025 0 0 0 0.385958,-0.235005 V 3.6504679 A 0.26455025,0.26455025 0 0 0 15.875069,3.3859325 H 14.342588 V 2.5478154 A 0.26455025,0.26455025 0 0 0 14.108843,2.2851001 C 13.705845,2.2378991 13.306026,2.2180991 12.911848,2.2251991 11.273775,2.2548001 9.7333037,2.7493098 8.4662077,3.6683886 7.1991117,2.7493098 5.6586597,2.2548197 4.0205867,2.2251991 c -0.0493,-8.9e-4 -0.0986,-0.001 -0.148073,-0.001 z m 0.0279,0.5289708 c 0.0368,9e-5 0.0736,4.7e-4 0.110343,10e-4 1.557641,0.027501 3.006761,0.5039503 4.190895,1.3786682 v 7.7746492 c -1.451259,-0.95796 -3.226506,-1.384709 -5.082794,-1.228305 V 3.652258 a 0.2645238,0.2645238 0 0 0 3.1e-4,-0.002 0.2645238,0.2645238 0 0 0 -3.1e-4,-0.006 V 2.7880003 c 0.262766,-0.023601 0.523671,-0.036301 0.781556,-0.035601 z m 9.1315173,0 c 0.257895,-6.8e-4 0.5188,0.012 0.781556,0.035601 v 7.8905514 c -1.856288,-0.156404 -3.631534,0.270345 -5.0827843,1.228305 V 4.1325578 c 1.184134,-0.8747079 2.6332543,-1.3511176 4.1908963,-1.3786482 0.0367,-6.5e-4 0.0735,-10e-4 0.110332,-10e-4 z M 1.3227617,3.9149733 h 1.267356 v 7.0546547 a 0.26455025,0.26455025 0 0 0 0.295316,0.262715 c 1.620813,-0.189944 3.169854,0.0911 4.482481,0.793196 -2.215685,-0.177123 -4.309888,0.141913 -6.045153,0.938239 z m 13.0200963,0 h 1.267966 v 9.0488047 c -1.735456,-0.796416 -3.829929,-1.115432 -6.0458743,-0.938179 1.3126473,-0.702144 2.8617193,-0.98321 4.4825823,-0.793256 a 0.26455025,0.26455025 0 0 0 0.295326,-0.262715 z"
       fill="#000000"
       fill-rule="evenodd"
       stroke-width="0.00924839"
       stroke-linecap="round"
       stroke-linejoin="round"
       id="path1" />
  </g>
</svg>
