<?xml version="1.0" encoding="UTF-8" standalone="no"?>
<svg
   version="1.1"
   viewBox="-5.0 -10.0 110.0 135.0"
   id="svg2"
   sodipodi:docname="noun-can-7754214_gray.svg"
   inkscape:version="1.4.2 (ebf0e940, 2025-05-08)"
   xmlns:inkscape="http://www.inkscape.org/namespaces/inkscape"
   xmlns:sodipodi="http://sodipodi.sourceforge.net/DTD/sodipodi-0.dtd"
   xmlns="http://www.w3.org/2000/svg"
   xmlns:svg="http://www.w3.org/2000/svg">
  <defs
     id="defs2" />
  <sodipodi:namedview
     id="namedview2"
     pagecolor="#ffffff"
     bordercolor="#000000"
     borderopacity="0.25"
     inkscape:showpageshadow="2"
     inkscape:pageopacity="0.0"
     inkscape:pagecheckerboard="0"
     inkscape:deskcolor="#d1d1d1"
     showgrid="false"
     inkscape:zoom="5.162963"
     inkscape:cx="55.007174"
     inkscape:cy="67.5"
     inkscape:window-width="1512"
     inkscape:window-height="916"
     inkscape:window-x="0"
     inkscape:window-y="38"
     inkscape:window-maximized="1"
     inkscape:current-layer="svg2" />
  <path
     d="m74.082 22.832-2.5859-5.1875v-5.9492c-0.03125-2.0625-2.2734-3.1953-7.6797-4.0586-1.957-3.7383-5.1719-5.7266-7.7617-4.6289-1.3711 0.58594-2.2773 1.9375-2.5898 3.7266-1.0898-0.035156-2.2305-0.058594-3.4648-0.058594-6.3438 0.16406-20.738 0.10547-21.488 5.0156v5.9648c-1.2617 2.8359-4.0273 6.8828-3.7578 10.125v54.484c-0.023437 2.4492 1.7188 4.4453 4.0156 5.1719 4.0938 13.203 38.309 13.277 42.457 0 2.293-0.73047 4.043-2.7188 4.0156-5.1719v-54.512c0-1.6992-0.40234-3.4023-1.1562-4.9258zm-42.445-5.2031v-3.0078c4.75 1.793 13.734 2.0742 18.363 2.0898 5.0547-0.003907 9.5664-0.23047 13.984-0.92578 1.8086-0.29688 3.2578-0.64453 4.3867-1.0586v2.9023c-1.293 0.85938-7.5 2.2734-18.367 2.2734-10.867 0-17.074-1.4141-18.367-2.2734zm33.645-5.2734c-0.042969-0.4375-0.10938-0.87891-0.20703-1.3281 1.1797 0.23828 1.9766 0.47656 2.5078 0.66797-0.48438 0.19141-1.2383 0.42578-2.3008 0.66016zm-8-6.4688c1.7617-0.71484 5.0195 4.2852 4.9219 7.0039-1.2422 0.16797-2.6172 0.30469-4.0898 0.41797-0.33594-0.50391-0.64844-1.0391-0.89062-1.6133-0.71094-1.6562-1.3242-4.8516 0.054688-5.8086zm-7.2812 3.9219c1.25 0 2.3945 0.023437 3.4883 0.0625 0.19531 1.1836 0.54688 2.5078 1.1602 3.6367-7.2266 0.53516-20.645-0.78906-22.184-1.8125 2.2852-0.83984 8.1875-1.8867 17.535-1.8867zm-21.289 14.426s1.875-3.7344 1.875-3.7344c4.332 2.2266 14.426 2.5273 19.422 2.5273 4.9961 0 15.09-0.30078 19.422-2.5273 0.88672 2.0156 2.8789 4.957 2.6875 7.2617v2.0195c-1.1562 1.0039-6.3477 4.5117-22.113 4.5117-15.793 0-20.945-3.4961-22.125-4.5312-0.015625-1.8203-0.082031-3.8867 0.82812-5.5273zm21.289 69.945c-10.082 0-14.66-2.8711-16.73-5.2148 3.9609 1.0938 9.5156 2.0742 16.73 2.0742 7.2266 0 12.789-0.98047 16.754-2.0781-2.0625 2.3359-6.6562 5.2188-16.754 5.2188zm20.848-9.9648c-9.8828 4.8672-31.848 4.8555-41.695 0-0.77344-0.34375-1.2734-1.1055-1.2734-1.9375v-48.738c3.1836 1.7617 9.6094 3.8789 22.125 3.8789 12.496 0 18.926-2.1133 22.113-3.8711v48.73c0 0.83203-0.5 1.5938-1.2695 1.9375z"
     id="path1"
     style="fill:#808080" />
</svg>
