<?xml version="1.0" encoding="utf-8"?>
<svg xmlns="http://www.w3.org/2000/svg" version="1.1" style="shape-rendering:geometricPrecision;text-rendering:geometricPrecision;image-rendering:optimizeQuality;" viewBox="-3527.65 -7055.3 77608.3 95246.55" x="0px" y="0px" fill-rule="evenodd" clip-rule="evenodd">
  <defs>
    <style type="text/css">
   
    .fil0 {fill:black;fill-rule:nonzero}
   
  </style>
  </defs>
  <g>
    <path class="fil0" d="M55285 64837l-40018 0c-389,0 -705,-315 -705,-705l0 -53265c0,-2835 2317,-5152 5152,-5152l31125 0c2835,0 5152,2317 5152,5152l0 53265c0,390 -316,705 -706,705zm-14675 -26946c-1366,674 -2746,1184 -4059,1669 -4171,1542 -7598,2810 -6486,8537 2863,71 5356,-951 7205,-2808 1764,-1772 2955,-4311 3340,-7398zm-4544 346c1631,-603 3369,-1245 4973,-2164 527,-323 1115,85 1087,625 -203,3973 -1590,7305 -3858,9584 -2197,2206 -5173,3384 -8581,3209 -105,-5 -187,-10 -245,-14l0 0c-302,-20 -568,-235 -639,-546 -1704,-7378 2327,-8869 7263,-10694zm-13017 -18534l24455 0c390,0 706,316 706,706l0 37053c0,390 -316,706 -706,706l-24455 0c-390,0 -706,-316 -706,-706l0 -37053c0,-390 316,-706 706,-706zm23750 1411l-23045 0 0 35643 23045 0 0 -35643zm-30826 -8081l38607 0 0 -2166c0,-2056 -1685,-3741 -3741,-3741l-31125 0c-2056,0 -3741,1685 -3741,3741l0 2166zm0 50393l38607 0 0 -48982 -38607 0 0 48982z"/>
  </g>
</svg>